<svg id="visual" viewBox="0 0 1500 700" width="1500" height="700" xmlns="http://www.w3.org/2000/svg" xmlns:xlink="http://www.w3.org/1999/xlink" version="1.1"><path d="M0 92L136 113L273 113L409 50L545 64L682 78L818 99L955 120L1091 50L1227 106L1364 127L1500 57L1500 0L1364 0L1227 0L1091 0L955 0L818 0L682 0L545 0L409 0L273 0L136 0L0 0Z" fill="#030100"></path><path d="M0 169L136 281L273 232L409 183L545 253L682 197L818 162L955 239L1091 127L1227 204L1364 190L1500 183L1500 55L1364 125L1227 104L1091 48L955 118L818 97L682 76L545 62L409 48L273 111L136 111L0 90Z" fill="#341b0a"></path><path d="M0 351L136 421L273 407L409 274L545 365L682 358L818 288L955 330L1091 302L1227 288L1364 330L1500 421L1500 181L1364 188L1227 202L1091 125L955 237L818 160L682 195L545 251L409 181L273 230L136 279L0 167Z" fill="#612d0e"></path><path d="M0 575L136 589L273 554L409 568L545 617L682 589L818 505L955 540L1091 561L1227 498L1364 547L1500 589L1500 419L1364 328L1227 286L1091 300L955 328L818 286L682 356L545 363L409 272L273 405L136 419L0 349Z" fill="#923f0d"></path><path d="M0 645L136 638L273 631L409 617L545 666L682 659L818 596L955 596L1091 596L1227 596L1364 624L1500 631L1500 587L1364 545L1227 496L1091 559L955 538L818 503L682 587L545 615L409 566L273 552L136 587L0 573Z" fill="#c75209"></path><path d="M0 701L136 701L273 701L409 701L545 701L682 701L818 701L955 701L1091 701L1227 701L1364 701L1500 701L1500 629L1364 622L1227 594L1091 594L955 594L818 594L682 657L545 664L409 615L273 629L136 636L0 643Z" fill="#ff6500"></path></svg>